<svg id="Layer_1" data-name="Layer 1" xmlns="http://www.w3.org/2000/svg" viewBox="0 0 493.53 406.89"><defs><style>.cls-1{fill:#88d1ce;}.cls-2{fill:#ee325a;}.cls-3{fill:#c2c4c4;}.cls-4{fill:#a7a9ac;}.cls-5{fill:#282425;}.cls-6{fill:#231f20;}.cls-7{fill:#c5315b;}.cls-8{fill:#ffdb92;}.cls-9{fill:#fff;}.cls-10{fill:#f0efef;}.cls-11,.cls-12{fill:none;stroke-miterlimit:10;}.cls-11{stroke:#fff;}.cls-12{stroke:#f1f2f2;stroke-width:0.5px;opacity:0.2;}</style></defs><title>mylogo</title><rect class="cls-1" x="162.17" y="234.41" width="210.31" height="14.15"/><rect class="cls-2" x="126.14" y="232.98" width="282.05" height="124.46"/><rect class="cls-3" x="56.17" y="234.41" width="71.26" height="53.85"/><rect class="cls-4" x="162.17" y="244.56" width="210.31" height="4"/><rect class="cls-4" x="162.17" y="234.41" width="210.31" height="4"/><rect class="cls-5" x="56.12" y="232.98" width="30.03" height="56.69"/><rect class="cls-3" x="407.92" y="234.41" width="71.26" height="53.85"/><rect class="cls-5" x="449.67" y="232.98" width="30.03" height="56.69"/><rect class="cls-6" x="192.17" y="272.56" width="35.72" height="85"/><path class="cls-6" d="M111,189V376h36V270h92V376h32.87V270h26.28V376H331V270h26.28V376H393V189a93,93,0,0,0-93-93H204A93,93,0,0,0,111,189Zm40.53,76H151v-6.15h.5Zm6.25,0h-.5v-6.15h.5Zm6.75,0H164v-6.15h.5Zm6.25,0h-.5v-6.15h.5Zm45.75,0H216v-6.15h.5Zm6.25,0h-.5v-6.15h.5Zm6.75,0H229v-6.15h.5Zm6.25,0h-.5v-6.15h.5Zm39.75,0H275v-6.15h.5Zm6.25,0h-.5v-6.15h.5Zm6.75,0H288v-6.15h.5Zm6.25,0h-.5v-6.15h.5Zm39.75,0H334v-6.15h.5Zm6.25,0h-.5v-6.15h.5Zm6.75,0H347v-6.15h.5Zm6.25,0h-.5v-6.15h.5Z" transform="translate(15.17 -18.44)"/><rect class="cls-7" x="355.39" y="251.83" width="52.8" height="23"/><rect class="cls-7" x="355.39" y="296.06" width="52.8" height="23"/><rect class="cls-7" x="355.39" y="334.56" width="52.8" height="23"/><rect class="cls-7" x="126.14" y="332.56" width="53.53" height="25"/><rect class="cls-2" x="246.64" y="333.56" width="53.53" height="23"/><rect class="cls-6" x="162.17" y="232.98" width="222.33" height="13.58"/><rect class="cls-8" x="49.83" y="244.56" width="6.28" height="34.33"/><rect class="cls-8" x="42.5" y="246.5" width="10.47" height="6.73"/><rect class="cls-8" x="42.5" y="254.31" width="7.33" height="7.33"/><rect class="cls-8" x="42.5" y="262.73" width="7.33" height="7.33"/><rect class="cls-8" x="49.83" y="239.77" width="6.28" height="4.79"/><rect class="cls-8" x="42.45" y="271.23" width="7.33" height="7.33"/><rect class="cls-8" x="464.69" y="262.64" width="6.28" height="34.33" transform="translate(950.83 541.18) rotate(180)"/><rect class="cls-8" x="467.83" y="264.58" width="10.47" height="6.73" transform="translate(961.31 517.45) rotate(180)"/><rect class="cls-8" x="470.97" y="272.39" width="7.33" height="7.33" transform="translate(964.45 533.68) rotate(180)"/><rect class="cls-8" x="470.97" y="280.81" width="7.33" height="7.33" transform="translate(964.45 550.52) rotate(180)"/><rect class="cls-8" x="464.69" y="257.86" width="6.28" height="4.79" transform="translate(950.83 502.06) rotate(180)"/><rect class="cls-8" x="471.03" y="289.31" width="7.33" height="7.33" transform="translate(964.55 567.52) rotate(180)"/><rect class="cls-7" x="162.17" y="251.86" width="65.72" height="20.7"/><rect class="cls-7" x="246.64" y="333.56" width="53.53" height="23.88"/><polygon class="cls-3" points="159.91 389.02 113.14 389.02 127.15 357.56 173.92 357.56 159.91 389.02"/><rect class="cls-3" x="171.64" y="357.56" width="189.27" height="31.46"/><polygon class="cls-3" points="374.54 389.02 421.31 389.02 407.3 357.56 360.53 357.56 374.54 389.02"/><rect class="cls-8" x="126.14" y="389.02" width="26.76" height="11.87"/><rect class="cls-8" x="384.5" y="389.02" width="26.76" height="11.87"/><rect class="cls-5" x="125.14" y="400.89" width="32.53" height="6"/><rect class="cls-5" x="383.5" y="400.89" width="32.53" height="6"/><path class="cls-9" d="M376,108c-1,1-1,3-2,4-1,2-4,3-5,4-37,20-77,13-117,7-18-3-34-9-53-12a201.56,201.56,0,0,1-23-7c-8-3-16-6-23-11-2-2-4-5-4-7-1-13,15-15,25-19a184.57,184.57,0,0,1,23-4c12-1,25,0,37,0,14,1,27,4,42,6,28,6,54,11,80,21,4,2,8,3,12,6,3,3,6,5,8,9v3Z" transform="translate(15.17 -18.44)"/><path class="cls-10" d="M289.88,89.78,235.24,79q-52.8-10.88-52.32-14.4.4-2.87,36.37-.83L222.91,36a22,22,0,0,1,26.12-17l54.29,11.42a22,22,0,0,1,17,26.12l-4.72,22.45q29.8,7.56,29.35,10.64Q344.37,93.66,289.88,89.78Z" transform="translate(15.17 -18.44)"/><ellipse class="cls-9" cx="274.21" cy="30.89" rx="9.03" ry="42.62" transform="translate(202.7 274.43) rotate(-78.12)"/><path class="cls-9" d="M150.25,90.18l39.07-22.47Z" transform="translate(15.17 -18.44)"/><path class="cls-9" d="M158.67,96.29l36.06-27Z" transform="translate(15.17 -18.44)"/><path class="cls-9" d="M170.8,101.64l33.76-29.86Z" transform="translate(15.17 -18.44)"/><path class="cls-9" d="M187.47,107.08l25.47-32.86Z" transform="translate(15.17 -18.44)"/><path class="cls-9" d="M206.18,113l19.45-36Z" transform="translate(15.17 -18.44)"/><path class="cls-9" d="M225.64,117.56l9.44-39Z" transform="translate(15.17 -18.44)"/><path class="cls-9" d="M240.76,120.2l5.35-38.71Z" transform="translate(15.17 -18.44)"/><path class="cls-9" d="M252.45,123.14l8-39.32Z" transform="translate(15.17 -18.44)"/><path class="cls-9" d="M268.1,126.13l3.51-40Z" transform="translate(15.17 -18.44)"/><path class="cls-9" d="M287.73,127.28l-7.56-39.41Z" transform="translate(15.17 -18.44)"/><path class="cls-9" d="M305.11,127.81,291.06,90.23Z" transform="translate(15.17 -18.44)"/><path class="cls-9" d="M321.56,127.33l-17.3-36.2Z" transform="translate(15.17 -18.44)"/><path class="cls-9" d="M340.37,125.49,318.08,92.13Z" transform="translate(15.17 -18.44)"/><path class="cls-9" d="M362.14,118.84,332,92.38Z" transform="translate(15.17 -18.44)"/><path class="cls-9" d="M375.65,109.64,346,89.85Z" transform="translate(15.17 -18.44)"/><path class="cls-11" d="M-14.67,139.33V140" transform="translate(15.17 -18.44)"/><path class="cls-7" d="M304.21,78.46a19.5,19.5,0,0,0-17.15-5.81,3.73,3.73,0,0,0-2.11.88,3.78,3.78,0,0,0-.85,2.1,44.74,44.74,0,0,0-.34,7.78c.06,4.19.61,9.22,4.36,11.09,3.33,1.67,7.35-.21,10.23-2.56s5.54-5.32,9.15-6.22C308.51,83.25,306,80.41,304.21,78.46Z" transform="translate(15.17 -18.44)"/><path class="cls-2" d="M305.8,83.13a12,12,0,0,0-10-2.28" transform="translate(15.17 -18.44)"/><path class="cls-2" d="M305.24,83.92a17.38,17.38,0,0,0-3.69-.4,5.83,5.83,0,0,0-3.47,1.16" transform="translate(15.17 -18.44)"/><path class="cls-7" d="M312.89,80.26a19.5,19.5,0,0,1,16.33-7.81,3.73,3.73,0,0,1,2.2.62,3.78,3.78,0,0,1,1.09,2,44.74,44.74,0,0,1,1.27,7.68c.44,4.17.49,9.23-3,11.53-3.11,2-7.32.67-10.46-1.33s-6.13-4.62-9.82-5.09C309.18,85.52,311.31,82.41,312.89,80.26Z" transform="translate(15.17 -18.44)"/><path class="cls-2" d="M311.86,85.08a12,12,0,0,1,9.61-3.45" transform="translate(15.17 -18.44)"/><circle class="cls-2" cx="308.73" cy="83.54" r="6.82" transform="translate(10.74 0.08) rotate(-3.41)"/><path class="cls-2" d="M321.78,75.59" transform="translate(15.17 -18.44)"/><path class="cls-2" d="M312.5,85.8a17.38,17.38,0,0,1,3.62-.83,5.83,5.83,0,0,1,3.58.74" transform="translate(15.17 -18.44)"/><path class="cls-12" d="M330,75.67a16.82,16.82,0,0,1,2.49,10" transform="translate(15.17 -18.44)"/><path class="cls-12" d="M332.61,86.92l-.5,0" transform="translate(15.17 -18.44)"/></svg>